:FULLY-SPECIFIED
:FORCE-ALL-JOINTS-BE-3DOF
:DEGREES
340
root 8.30179 16.0013 -20.7963 11.3602 27.1198 5.42594
lfemur -11.1628 19.5565 -11.7667
ltibia 40.7212 -0 0
lfoot 1.85276 24.9179 -0.0245402
ltoes -31.2019 0 0
rfemur -47.7087 -12.8172 5.95852
rtibia 55.8277 -0 0
rfoot 4.18594 -20.0229 -0.216747
rtoes 9.63696 -0 0
lowerback -0.186238 -1.95719 -2.16455
upperback 1.94518 -2.56875 -0.313052
thorax 2.18289 -1.31685 0.827799
lowerneck -5.13591 -9.20685 -0.481225
upperneck -2.91634 -12.2145 6.71306
head 0.42387 -6.07359 1.9035
lclavicle -3.05145e-14 1.18941e-14 8.79017e-33
lhumerus -48.1648 -36.9369 110.154
lradius 58.1017 -0 0
lwrist 19.218 0 0
lhand 7.14015 12.6349 0.0264243
lfingers 7.12502 -0 0
lthumb 32.4049 39.7203 0.0136832
rclavicle -3.05145e-14 1.18941e-14 8.79017e-33
rhumerus -18.9548 20.3726 -69.068
rradius 84.683 -0 0
rwrist 2.78515 0 0
rhand 19.4868 -6.92108 0.826933
rfingers 7.12502 -0 0
rthumb 44.0071 -30.0068 0.968736
341
root 8.24355 16.02 -20.6662 11.0736 25.8714 4.9819
lfemur -11.3922 19.4315 -11.3287
ltibia 41.9898 -0 0
lfoot 1.91458 23.578 -0.0403721
ltoes -29.2874 0 0
rfemur -47.1415 -12.8534 6.92452
rtibia 55.4207 -0 0
rfoot 3.35775 -19.1365 -0.356516
rtoes 9.61707 -0 0
lowerback -0.0858653 -1.86424 -2.05609
upperback 1.94614 -2.44956 -0.228206
thorax 2.12436 -1.25651 0.856157
lowerneck -5.2377 -9.00172 -0.453299
upperneck -2.74712 -11.9525 6.59515
head 0.478692 -5.93831 1.86675
lclavicle -2.92354e-14 1.18704e-14 1.44461e-32
lhumerus -47.9647 -36.373 109.817
lradius 58.0697 -0 0
lwrist 19.0789 0 0
lhand 6.60983 12.4641 0.0434333
lfingers 7.12502 -0 0
lthumb 31.8975 39.6278 0.0224904
rclavicle -2.92354e-14 1.18704e-14 1.44461e-32
rhumerus -19.961 19.933 -70.1539
rradius 84.312 -0 0
rwrist 2.77967 0 0
rhand 17.2755 -8.11693 1.36401
rfingers 7.12502 -0 0
rthumb 41.9097 -31.4775 1.59823
342
root 8.17293 16.0427 -20.5085 10.7443 24.3552 4.45878
lfemur -11.6716 19.2821 -10.7972
ltibia 43.5279 -0 0
lfoot 1.99002 21.9534 -0.0576215
ltoes -26.966 0 0
rfemur -46.4546 -12.9097 8.09541
rtibia 54.9273 -0 0
rfoot 2.35085 -18.0593 -0.50875
rtoes 9.59296 -0 0
lowerback 0.0360726 -1.7518 -1.92436
upperback 1.94753 -2.30504 -0.125332
thorax 2.05342 -1.18332 0.890458
lowerneck -5.36091 -8.75291 -0.419953
upperneck -2.54289 -11.6344 6.45339
head 0.545033 -5.77423 1.82237
lclavicle -2.76844e-14 1.18418e-14 2.05963e-32
lhumerus -47.7294 -35.6877 109.414
lradius 58.0309 -0 0
lwrist 18.9102 0 0
lhand 5.96674 12.2569 0.0619357
lfingers 7.12502 -0 0
lthumb 31.2822 39.5156 0.0320703
rclavicle -2.76844e-14 1.18418e-14 2.05963e-32
rhumerus -21.1651 19.3764 -71.4552
rradius 83.8621 -0 0
rwrist 2.77302 0 0
rhand 14.5792 -9.5938 1.95256
rfingers 7.12502 -0 0
rthumb 39.3449 -33.2908 2.28837
343
root 8.09184 16.0688 -20.3273 10.3893 22.6109 3.87709
lfemur -11.9937 19.1136 -10.1866
ltibia 45.2942 -0 0
lfoot 2.0772 20.0878 -0.0747821
ltoes -24.3003 0 0
rfemur -45.6673 -12.9912 9.43935
rtibia 54.3607 -0 0
rfoot 1.19128 -16.8192 -0.660145
rtoes 9.56528 -0 0
lowerback 0.17641 -1.62302 -1.77281
upperback 1.94944 -2.13909 -0.00720652
thorax 1.97202 -1.09922 0.929734
lowerneck -5.50211 -8.46712 -0.382356
upperneck -2.30964 -11.2686 6.29223
head 0.621034 -5.58574 1.77167
lclavicle -2.59034e-14 1.18089e-14 2.67018e-32
lhumerus -47.469 -34.8994 108.961
lradius 57.9863 -0 0
lwrist 18.7165 0 0
lhand 5.22797 12.0185 0.0803159
lfingers 7.12502 -0 0
lthumb 30.5754 39.3866 0.0415861
rclavicle -2.59034e-14 1.18089e-14 2.67018e-32
rhumerus -22.5259 18.7058 -72.9284
rradius 83.3455 -0 0
rwrist 2.76538 0 0
rhand 11.4642 -11.3224 2.54159
rfingers 7.12502 -0 0
rthumb 36.3729 -35.4099 2.97942
344
root 8.00218 16.0977 -20.1271 10.0238 20.6786 3.2555
lfemur -12.3518 18.9311 -9.51101
ltibia 47.2471 -0 0
lfoot 2.17419 18.025 -0.0904409
ltoes -21.3529 0 0
rfemur -44.799 -13.1023 10.9244
rtibia 53.7342 -0 0
rfoot -0.0943367 -15.4447 -0.798247
rtoes 9.53466 -0 0
lowerback 0.331967 -1.48106 -1.60488
upperback 1.95196 -1.9556 0.123397
thorax 1.88209 -1.00616 0.97302
lowerneck -5.6579 -8.15101 -0.341645
upperneck -2.0533 -10.8633 6.11604
head 0.704845 -5.37726 1.71591
lclavicle -2.39342e-14 1.17725e-14 3.22617e-32
lhumerus -47.1927 -34.0258 108.47
lradius 57.937 -0 0
lwrist 18.5023 0 0
lhand 4.41121 11.7548 0.0970559
lfingers 7.12502 -0 0
lthumb 29.7941 39.2438 0.0502525
rclavicle -2.39342e-14 1.17725e-14 3.22617e-32
rhumerus -24.0025 17.9265 -74.5304
rradius 82.7743 -0 0
rwrist 2.75694 0 0
rhand 7.99939 -13.2686 3.08218
rfingers 7.12502 -0 0
rthumb 33.0573 -37.7928 3.61397
